<?xml version="1.0" standalone="no"?>
<!DOCTYPE svg PUBLIC "-//W3C//DTD SVG 20010904//EN"
 "http://www.w3.org/TR/2001/REC-SVG-20010904/DTD/svg10.dtd">
<svg version="1.0" xmlns="http://www.w3.org/2000/svg"
 width="500.000000pt" height="500.000000pt" viewBox="0 0 500.000000 500.000000"
 preserveAspectRatio="xMidYMid meet">
<metadata>
Created by potrace 1.11, written by Peter Selinger 2001-2013
</metadata>
<g transform="translate(0.000000,500.000000) scale(0.100000,-0.100000)"
fill="#000000" stroke="none">
<path d="M3793 4971 c-13 -16 -23 -32 -23 -36 0 -5 -8 -14 -17 -21 -17 -13
-17 -14 1 -7 30 10 10 -14 -26 -33 -16 -8 -27 -18 -24 -21 3 -3 -3 -13 -13
-22 -10 -9 -32 -39 -49 -67 -27 -46 -28 -52 -13 -62 14 -10 14 -11 -3 -5 -13
4 -17 3 -12 -5 5 -8 -3 -12 -23 -12 -17 0 -31 -4 -31 -9 0 -6 46 -9 110 -8 60
1 110 5 110 10 0 4 -10 7 -22 8 -13 0 -17 3 -10 6 6 2 12 16 12 30 0 21 2 24
15 13 10 -9 15 -9 16 -1 3 21 4 26 24 89 11 34 23 62 27 62 4 0 5 7 2 15 -4 8
-1 15 6 15 7 0 10 6 7 14 -6 15 15 40 25 30 3 -2 8 6 10 19 4 21 1 24 -36 25
-34 1 -45 -3 -63 -27z"/>
<path d="M3660 4930 c-6 -11 -8 -20 -6 -20 3 0 10 9 16 20 6 11 8 20 6 20 -3
0 -10 -9 -16 -20z"/>
<path d="M3571 4761 c-9 -16 -8 -18 9 -14 21 6 26 18 11 28 -6 3 -15 -3 -20
-14z"/>
<path d="M3550 4704 c0 -8 5 -12 10 -9 6 4 8 11 5 16 -9 14 -15 11 -15 -7z"/>
<path d="M3601 4614 c-12 -15 -21 -32 -21 -39 0 -7 -7 -15 -15 -19 -8 -3 -15
-14 -15 -24 0 -10 -11 -24 -24 -30 -16 -7 -42 -46 -80 -121 -30 -60 -56 -118
-58 -128 -2 -10 -12 -26 -23 -36 -20 -18 -20 -18 5 -12 24 6 24 6 -5 -18 l-30
-25 28 -11 c60 -23 67 -14 67 95 0 67 2 75 25 90 14 9 22 20 19 25 -2 5 2 19
11 32 21 33 70 26 83 -12 l10 -26 6 30 c4 17 14 42 22 57 8 14 14 32 14 39 0
17 52 123 63 127 4 2 5 8 2 13 -4 5 1 6 9 3 9 -3 16 -1 16 5 0 6 -19 11 -44
11 -36 0 -48 -5 -65 -26z"/>
<path d="M1376 4485 c-18 -19 -54 -77 -79 -128 -42 -82 -49 -105 -62 -208 -8
-66 -12 -151 -9 -195 8 -116 0 -132 -72 -161 -35 -14 -77 -40 -99 -63 -33 -34
-41 -53 -66 -152 -20 -79 -29 -138 -29 -196 0 -59 -4 -88 -14 -98 -15 -14
-107 -20 -119 -7 -4 3 9 20 29 37 26 23 39 45 50 86 16 61 4 91 -21 56 -13
-17 -15 -17 -21 -3 -3 10 -12 17 -19 17 -8 0 -22 11 -32 23 -14 19 -26 23 -56
21 -20 -2 -37 1 -37 5 0 9 48 26 63 22 5 -1 5 3 2 9 -4 6 -10 9 -13 6 -3 -3
-11 -1 -17 4 -19 16 -65 -5 -65 -29 0 -25 -20 -71 -32 -71 -4 0 -8 -8 -8 -17
0 -15 -2 -16 -10 -3 -24 37 -7 -13 25 -72 34 -65 34 -66 12 -71 -38 -8 -212
-74 -255 -96 -22 -11 -50 -34 -62 -51 -12 -17 -25 -28 -30 -25 -5 3 -12 0 -16
-6 -4 -8 -3 -9 4 -5 17 10 16 8 -27 -85 -22 -46 -49 -108 -60 -137 l-21 -53
30 -17 c16 -9 30 -21 30 -27 0 -5 7 1 16 13 12 17 25 22 62 22 26 0 53 -4 61
-9 20 -13 8 -75 -24 -122 -22 -30 -25 -41 -16 -58 6 -11 11 -81 12 -163 0 -79
4 -163 8 -188 5 -30 8 11 9 125 1 115 7 194 18 245 26 120 33 125 32 20 0 -52
-5 -104 -11 -115 -6 -11 -12 -81 -13 -156 -1 -81 -6 -145 -13 -158 -10 -18 -9
-28 9 -55 l20 -34 -30 -58 c-27 -50 -32 -55 -37 -35 -3 13 -9 18 -12 12 -5 -7
-15 -4 -29 9 -20 19 -22 19 -24 3 -7 -76 -4 -130 8 -148 12 -18 12 -42 3 -141
-6 -65 -13 -155 -15 -199 -1 -44 -10 -96 -18 -117 -9 -20 -20 -58 -26 -84 -6
-27 -19 -57 -28 -67 -18 -20 -27 -85 -40 -289 -4 -70 -10 -129 -12 -131 -3 -2
-17 -11 -33 -20 -24 -16 -27 -23 -27 -71 0 -35 5 -58 15 -66 15 -13 11 -35 -6
-25 -5 4 -17 1 -26 -4 -10 -6 -14 -11 -9 -11 6 0 2 -6 -8 -13 -9 -7 -18 -25
-20 -40 -1 -15 -6 -30 -11 -35 -4 -4 -4 0 0 8 5 8 -6 0 -23 -19 -18 -18 -32
-36 -32 -40 0 -7 58 -26 110 -36 19 -3 55 -1 80 5 25 6 69 16 98 22 47 9 53
13 48 30 -2 11 2 31 10 44 9 12 24 50 34 84 18 58 18 64 2 97 -15 32 -15 36
-1 47 10 7 26 52 39 111 57 259 75 320 142 475 9 19 26 62 38 95 49 134 124
283 160 320 38 37 89 -66 168 -340 16 -55 38 -118 49 -140 10 -22 27 -65 36
-95 8 -30 26 -87 38 -127 l22 -72 -27 -31 -26 -32 25 -20 c24 -19 25 -22 11
-37 -20 -22 -20 -65 -1 -81 12 -10 14 -37 11 -150 -3 -135 -4 -140 -35 -190
-18 -29 -31 -59 -29 -69 2 -9 -8 -26 -22 -38 l-25 -22 37 -1 c43 0 70 -9 63
-20 -3 -5 7 -5 23 -1 16 5 69 10 118 12 75 3 92 7 112 26 30 29 28 33 -10 22
-37 -10 -40 -9 -25 12 11 15 97 28 190 29 15 0 27 5 27 10 0 25 -54 32 -130
17 -68 -14 -77 -14 -92 0 -18 16 -24 9 -19 -19 2 -12 -37 -10 -44 2 -3 6 1 13
9 16 9 3 13 10 10 15 -3 5 0 9 7 9 8 0 8 4 -1 15 -11 13 -10 14 3 9 8 -3 18
-12 21 -20 3 -9 10 -12 16 -9 5 3 10 2 10 -3 0 -5 34 -2 76 6 58 12 84 13 105
5 26 -10 29 -9 29 8 0 20 -33 59 -51 59 -24 0 -42 75 -41 175 0 96 -1 102 -29
137 -16 20 -29 40 -29 44 0 4 -7 15 -16 25 -14 16 -15 27 -5 81 6 35 15 117
21 183 13 160 20 208 31 219 5 6 9 20 9 32 0 12 7 27 15 34 8 7 15 23 15 36 0
12 4 34 10 49 5 14 17 77 25 140 8 62 22 147 32 189 l18 76 62 0 c34 0 65 -5
68 -10 11 -18 53 -172 70 -258 18 -88 46 -186 71 -239 8 -17 14 -38 14 -46 0
-9 4 -18 8 -21 5 -3 9 -24 10 -46 1 -23 4 -46 8 -51 9 -15 41 -141 48 -189 4
-25 15 -59 26 -75 11 -17 20 -43 20 -58 0 -16 5 -37 11 -48 7 -15 6 -27 -5
-49 -13 -27 -13 -32 3 -52 19 -25 41 -93 41 -125 0 -11 8 -45 18 -76 13 -37
16 -59 9 -66 -5 -5 -12 -45 -15 -88 -3 -43 -9 -81 -14 -84 -6 -4 4 -11 21 -17
17 -6 31 -8 31 -4 0 4 5 -1 11 -11 5 -9 18 -17 27 -17 15 0 15 2 2 11 -11 8
-9 9 10 3 14 -4 66 -8 115 -9 50 0 99 -4 110 -9 16 -6 17 -6 5 4 -12 9 -11 11
10 9 14 -1 54 -1 89 0 59 1 63 2 45 15 -26 20 -17 25 51 31 33 3 60 7 62 8 1
2 -4 16 -13 32 -8 16 -13 34 -11 40 7 16 -36 90 -52 90 -8 0 -15 8 -17 18 -2
15 0 16 12 6 20 -16 24 -9 31 53 4 39 1 63 -10 84 -10 20 -14 44 -10 72 5 34
3 42 -10 42 -9 0 -19 5 -23 11 -4 7 2 9 17 7 19 -2 25 2 27 21 2 13 -1 28 -7
34 -14 14 -14 30 -1 22 7 -4 9 31 5 107 -9 179 -14 216 -32 222 -12 5 -14 16
-9 53 3 26 13 54 22 64 11 12 16 47 19 135 3 66 9 146 15 179 5 33 10 80 11
105 0 25 6 61 14 80 l13 35 10 -25 c53 -130 72 -191 72 -230 0 -25 7 -58 15
-74 8 -15 15 -41 15 -55 0 -15 3 -31 7 -34 7 -8 6 -164 -2 -177 -13 -20 -5
-247 9 -295 18 -58 20 -111 5 -120 -6 -4 -8 -13 -5 -20 3 -8 -2 -19 -10 -25
-17 -15 -18 -46 -3 -119 10 -46 9 -69 -4 -125 -8 -37 -13 -74 -10 -82 2 -7 1
-18 -3 -25 -13 -22 -12 -68 2 -80 8 -6 14 -9 14 -5 0 3 16 0 35 -9 21 -8 33
-10 29 -3 -5 8 2 8 22 3 28 -8 178 -8 219 0 11 2 79 4 150 4 72 1 125 5 118 9
-6 4 59 6 145 6 87 -1 162 1 169 3 9 3 8 16 -3 51 -16 54 -18 102 -4 102 5 0
14 9 21 21 9 17 7 25 -10 43 -25 26 -27 42 -6 50 21 8 19 50 -5 71 -13 12 -20
31 -20 56 0 47 28 109 49 109 13 1 13 3 -2 14 -17 13 -18 29 -16 168 2 183 4
197 36 209 13 5 21 13 18 19 -3 5 -2 10 4 10 14 0 20 -39 31 -224 6 -93 12
-171 13 -172 7 -7 137 -7 143 -1 4 4 -2 7 -14 7 -14 0 -22 6 -22 18 0 9 -7 91
-15 181 -8 90 -14 166 -12 168 3 2 18 5 36 6 38 2 45 36 9 38 -22 1 -22 1 2 8
14 4 27 6 29 4 8 -6 12 -65 18 -273 4 -181 3 -207 -11 -219 -12 -10 -20 -11
-29 -2 -11 8 -13 3 -13 -24 1 -25 5 -35 16 -34 43 4 48 -1 56 -53 4 -29 7 -56
6 -60 -1 -5 4 -8 12 -8 11 0 14 -9 10 -32 -34 -244 -43 -232 183 -236 211 -5
270 2 279 31 8 26 -30 62 -82 76 -20 6 -51 25 -69 43 -18 18 -45 42 -59 53
-39 29 -49 51 -35 76 6 12 7 19 1 15 -12 -7 -22 16 -22 49 0 13 -4 26 -9 29
-17 11 1 46 23 47 19 1 18 2 -4 8 -27 8 -26 -11 -21 229 1 24 7 35 24 43 l22
10 -22 -5 c-26 -5 -28 2 -39 149 -14 184 -14 175 12 175 13 0 24 5 24 11 0 7
-10 9 -25 5 -14 -4 -25 -3 -25 2 0 5 6 9 13 9 7 0 25 3 40 6 21 6 29 3 39 -13
15 -24 37 -26 52 -5 7 10 36 18 81 22 41 3 67 2 62 -3 -9 -9 -13 -10 -43 -13
-8 0 -12 -6 -9 -11 4 -6 11 -8 16 -5 5 4 33 6 61 7 29 0 58 3 63 8 6 4 32 10
59 14 39 5 47 3 43 -8 -6 -14 61 -15 193 -1 30 3 79 6 109 5 44 0 52 2 47 15
-3 9 0 15 10 15 8 0 12 -4 9 -10 -3 -6 4 -10 17 -10 14 0 18 3 11 8 -6 4 6 7
28 7 23 0 44 6 48 14 5 8 14 10 21 6 8 -5 11 -4 6 3 -3 6 -2 13 4 17 14 9 12
52 -2 58 -7 2 -21 0 -30 -5 -10 -5 -18 -5 -18 0 0 4 12 13 28 20 l27 11 -33
-3 c-35 -3 -40 17 -5 22 16 2 19 9 15 28 -4 23 -8 25 -38 19 -22 -4 -34 -2
-34 5 0 6 13 13 30 16 22 5 29 11 27 27 -4 43 -57 72 -57 31 0 -8 -7 -14 -15
-14 -8 0 -15 -5 -15 -11 0 -6 7 -8 16 -5 9 3 18 6 20 6 2 0 4 7 4 15 0 22 18
18 25 -6 7 -21 -11 -43 -26 -33 -4 2 -9 0 -11 -6 -1 -5 -13 -7 -25 -4 -13 4
-20 10 -17 15 3 6 -10 8 -29 6 -31 -4 -34 -2 -25 13 8 12 8 22 0 36 -11 18
-11 18 -12 -4 0 -13 -4 -20 -10 -17 -6 4 -8 11 -5 16 4 5 2 9 -3 9 -5 0 -14
18 -20 40 -8 34 -7 42 7 51 14 8 13 9 -4 4 -18 -4 -21 0 -20 28 0 39 -9 47
-57 47 -39 0 -59 -17 -37 -31 12 -7 11 -9 -1 -9 -12 -1 -12 -3 2 -14 10 -7 14
-16 10 -20 -4 -4 -8 -12 -8 -17 -1 -5 -2 -13 -3 -18 0 -5 -11 -12 -23 -14 -18
-3 -17 -5 6 -6 34 -1 25 -15 -14 -24 -22 -5 -25 -3 -27 23 -1 20 3 30 15 33
12 3 10 5 -6 6 -28 1 -19 21 9 21 10 0 19 5 19 10 0 6 -11 8 -25 4 -30 -7 -34
12 -5 21 23 7 27 25 5 25 -8 0 -15 -5 -15 -11 0 -5 -5 -7 -10 -4 -8 5 -8 11 0
20 8 10 7 14 -2 18 -7 2 -10 7 -7 11 11 12 107 23 121 15 8 -6 2 -9 -19 -9
-18 0 -33 -5 -33 -10 0 -6 21 -10 49 -9 43 2 50 5 54 25 2 13 1 21 -4 19 -4
-3 -10 -1 -13 4 -4 5 -2 12 4 16 7 4 7 12 0 25 -13 25 -13 39 1 20 8 -12 9
-11 5 5 -3 11 -8 32 -11 47 -4 15 -14 29 -23 31 -15 4 -14 5 1 6 12 1 17 8 15
19 -1 9 1 24 6 32 5 8 6 12 1 8 -17 -16 -34 12 -24 38 6 16 5 23 -1 19 -6 -4
-7 6 -3 26 6 30 5 32 -20 27 -15 -3 -27 -1 -27 3 0 5 11 9 25 9 23 0 25 3 19
27 -4 15 -7 33 -7 40 0 7 -4 13 -8 13 -4 0 -9 6 -11 13 -2 11 -10 10 -33 -5
l-30 -18 35 0 35 -1 -30 -13 c-16 -7 -37 -11 -46 -8 -9 2 -19 0 -22 -5 -3 -5
15 -8 40 -8 45 2 45 2 19 -12 -15 -8 -24 -18 -21 -24 4 -5 11 -6 17 -3 7 4 8
2 4 -4 -4 -7 -16 -12 -27 -12 -10 0 -19 -5 -19 -11 0 -6 8 -8 18 -5 9 3 24 1
32 -5 13 -10 13 -10 0 -6 -20 6 -42 -17 -29 -30 7 -7 2 -13 -15 -17 -41 -10
-30 -22 17 -19 l42 3 -54 -19 c-52 -19 -75 -37 -65 -53 3 -4 0 -8 -6 -8 -7 0
-14 9 -17 20 -5 21 -53 30 -53 10 0 -5 5 -10 10 -10 6 0 10 -7 10 -15 0 -11
11 -15 40 -15 38 0 54 14 28 22 -8 3 -4 10 11 17 26 14 101 20 101 9 0 -7 -24
-12 -42 -9 -5 0 -8 -4 -8 -9 0 -6 5 -10 10 -10 17 0 11 -18 -7 -23 -17 -4 -17
-5 0 -6 20 -1 23 -21 3 -21 -8 0 -17 -4 -20 -9 -3 -5 10 -8 29 -6 51 5 43 -9
-13 -24 -57 -14 -80 -8 -88 25 -6 24 -8 24 -108 21 -55 -1 -107 -5 -115 -7 -7
-3 -16 1 -18 8 -3 7 -1 12 4 11 19 -3 33 2 33 12 0 7 -33 9 -102 5 -57 -3
-105 -6 -108 -7 -9 -4 -25 -7 -37 -8 -7 0 -13 -6 -13 -12 0 -5 4 -8 9 -4 5 3
49 7 97 10 63 3 90 1 96 -8 13 -21 9 -29 -8 -13 -14 15 -34 21 -34 12 0 -3 7
-11 15 -19 12 -13 12 -15 -5 -20 -11 -3 -20 0 -20 6 0 7 -4 7 -12 -1 -22 -22
9 -30 90 -26 81 4 126 24 56 24 -27 1 -34 3 -24 9 19 11 176 18 186 8 4 -4
-18 -7 -49 -7 -31 0 -57 -4 -57 -10 0 -5 6 -11 13 -11 6 -1 19 -2 27 -3 8 0
14 -9 14 -18 -1 -14 6 -17 38 -16 28 1 37 5 34 15 -3 7 -1 13 3 13 5 0 11 -7
14 -14 7 -17 -11 -24 -65 -28 -29 -2 -38 -6 -38 -20 0 -15 -9 -18 -51 -18 -41
0 -50 3 -45 15 6 17 -14 21 -30 6 -5 -6 -34 -12 -64 -14 -51 -3 -50 -3 16 -5
62 -2 72 -5 77 -22 3 -13 0 -20 -9 -20 -8 0 -17 -7 -20 -15 -4 -9 -19 -15 -41
-15 -37 0 -73 -15 -73 -30 0 -6 9 -5 20 2 15 9 25 10 38 2 9 -6 29 -8 43 -4
23 7 27 5 27 -16 0 -13 -4 -24 -9 -24 -5 0 -9 5 -9 10 0 6 -4 10 -8 10 -16 0
-9 -35 11 -52 12 -11 15 -18 7 -18 -7 0 -19 8 -26 18 -11 15 -16 15 -35 4 -16
-11 -23 -11 -29 -2 -8 13 -51 10 -62 -5 -5 -6 -8 -5 -8 2 0 7 -6 10 -14 7 -8
-3 -28 2 -44 10 -17 9 -37 13 -45 10 -11 -4 -14 3 -13 28 1 40 10 47 46 41 16
-2 32 1 36 8 5 9 1 10 -15 6 -17 -4 -21 -1 -19 10 3 13 20 15 111 14 64 -1
107 2 107 8 0 5 -21 10 -47 10 -90 0 -193 23 -193 43 0 5 -9 8 -20 8 -15 0
-20 7 -20 29 0 16 6 31 15 35 24 9 17 26 -10 26 -19 0 -26 7 -31 28 -3 15 -9
39 -14 53 -6 21 -4 31 12 47 l20 20 -21 65 -22 66 36 53 c20 29 45 56 56 60
10 4 21 20 25 35 3 15 14 52 25 82 10 31 15 59 10 65 -5 6 -9 35 -10 65 -4
128 -46 343 -81 411 -19 38 -62 62 -157 91 -46 13 -50 29 -6 22 19 -3 3 9 -45
36 -40 23 -75 41 -78 41 -2 0 -4 -24 -4 -54 0 -29 -4 -66 -9 -82 -4 -16 -16
-64 -26 -106 -10 -43 -22 -78 -26 -78 -4 0 -15 24 -24 53 -23 68 -94 207 -107
207 -6 0 -5 7 2 15 12 14 15 14 36 0 22 -14 24 -14 40 17 9 18 23 40 30 48 8
8 25 29 40 47 l25 32 -25 7 c-14 3 -29 3 -35 0 -5 -4 -12 -2 -16 4 -4 7 -12 7
-25 0 -29 -16 -45 -13 -30 5 7 8 21 15 31 15 26 0 34 20 10 27 -33 9 -24 26
11 21 27 -4 29 -3 14 7 -18 13 -47 9 -81 -12 -15 -10 -17 -15 -7 -21 10 -7 9
-12 -4 -23 -16 -12 -17 -12 -11 3 4 12 1 16 -13 15 -10 -1 -17 -4 -15 -7 2 -3
-6 -12 -17 -19 -17 -11 -20 -11 -16 1 4 9 -1 14 -14 14 -15 0 -18 -6 -15 -23
3 -15 -1 -23 -9 -23 -19 0 -17 -27 2 -34 12 -4 15 -2 10 9 -3 8 -2 15 3 15 4
0 12 -16 18 -35 6 -19 7 -33 3 -32 -5 1 -16 -7 -25 -18 -9 -11 -14 -15 -11 -8
4 6 2 14 -3 18 -6 3 -8 -3 -6 -14 5 -27 -30 -55 -110 -85 -100 -38 -117 -48
-141 -84 -38 -55 -65 -209 -90 -511 -5 -66 8 -121 30 -121 6 0 28 -35 50 -78
21 -42 55 -104 76 -137 29 -46 39 -74 44 -123 4 -35 10 -71 13 -79 4 -9 2 -14
-3 -11 -10 7 -10 -150 0 -227 14 -97 14 -104 3 -109 -9 -3 -8 -5 1 -5 18 -1
14 -29 -5 -34 -16 -4 -16 -5 -1 -6 12 -1 18 -15 23 -58 7 -68 -3 -273 -14
-288 -5 -5 -14 -56 -21 -113 -14 -107 -4 -297 22 -451 10 -60 9 -67 -13 -109
l-24 -44 22 -15 c18 -12 20 -19 13 -39 -6 -14 -21 -37 -35 -52 -25 -27 -34
-49 -15 -37 6 3 7 -1 4 -9 -3 -9 -10 -16 -14 -16 -5 0 -12 -12 -18 -27 l-9
-28 -17 33 c-15 29 -21 32 -62 32 -70 0 -131 19 -149 46 -8 13 -21 24 -27 24
-18 0 -68 61 -68 84 -1 27 -8 111 -13 154 -2 19 -9 37 -14 40 -11 7 -2 203 16
377 6 54 5 84 -2 94 -9 10 -6 17 8 27 25 18 35 100 22 184 -6 36 -11 151 -12
255 0 105 -5 213 -9 240 -9 49 -8 50 11 33 30 -27 78 -23 112 10 23 21 31 39
36 77 3 28 2 43 -2 35 -9 -18 -33 -25 -33 -10 0 7 -6 7 -20 0 -15 -8 -23 -6
-39 11 -16 18 -19 32 -16 76 3 30 8 60 12 66 25 40 16 226 -10 210 -6 -3 -7
-1 -3 6 4 6 1 25 -8 42 -8 16 -13 36 -10 44 3 7 1 16 -5 20 -8 4 -8 12 -1 25
7 12 7 27 0 45 -6 15 -8 30 -5 35 6 10 -25 70 -45 87 -8 7 -10 13 -5 13 6 0 4
4 -3 9 -9 6 1 12 33 20 38 10 46 15 40 29 -4 9 -17 62 -30 117 -56 240 -97
301 -222 335 -27 7 -67 28 -89 46 -41 33 -42 33 -60 13 -30 -33 -115 -22 -187
24 -31 20 -57 40 -57 43 0 4 7 1 15 -6 8 -7 22 -10 30 -6 8 3 15 1 15 -5 0 -6
6 -9 14 -6 7 3 31 2 52 -3 49 -11 80 7 88 50 3 16 9 45 12 63 4 17 3 29 -2 24
-4 -4 -18 0 -30 8 -13 8 -29 13 -36 10 -7 -3 -20 0 -28 5 -13 9 -13 11 0 20 8
5 25 10 38 10 26 0 30 20 5 21 -12 0 -14 2 -5 6 8 3 27 -7 43 -23 32 -30 35
-28 17 10 -6 14 -24 31 -40 38 -15 7 -28 17 -28 21 0 5 4 6 9 3 11 -7 34 20
27 32 -8 14 -77 45 -83 38 -4 -3 -1 -6 5 -6 8 0 9 -7 2 -25 -6 -16 -6 -27 2
-31 7 -4 2 -12 -13 -20 -28 -15 -39 -10 -39 17 0 10 -9 24 -20 31 -28 18 -25
28 9 28 16 0 34 6 40 14 7 8 21 12 32 9 17 -5 19 -2 15 21 -7 40 -14 46 -52
46 -40 0 -41 6 -13 54 18 30 26 36 56 36 49 0 88 -31 107 -87 9 -26 16 -48 16
-50 0 -2 -13 6 -29 18 -52 38 -85 -2 -41 -49 16 -17 25 -20 45 -12 22 8 25 6
30 -23 4 -18 7 -53 8 -78 2 -44 3 -45 17 -25 8 11 16 48 18 81 3 54 0 68 -38
143 -26 51 -50 87 -63 92 -12 4 -44 17 -72 28 -49 20 -49 20 -88 0 -125 -63
-204 -237 -153 -335 9 -18 16 -39 16 -47 0 -31 34 -86 53 -86 12 0 17 -5 14
-14 -3 -7 -1 -18 4 -23 6 -6 -2 -8 -21 -5 -17 2 -54 -3 -83 -11 -116 -34 -110
-37 -141 60 -36 110 -61 134 -173 165 -81 22 -83 24 -78 49 4 17 -15 88 -56
210 -63 187 -105 285 -133 308 -8 7 -27 32 -41 56 -19 34 -34 47 -63 55 -62
17 -82 12 -116 -25z m68 -137 c-4 -7 -3 -8 4 -4 6 4 23 4 37 0 35 -9 14 -24
-33 -24 -18 0 -31 -4 -28 -9 3 -4 -6 -6 -19 -3 -21 4 -23 7 -14 23 5 11 14 17
19 14 5 -3 11 -1 15 5 3 5 11 10 16 10 6 0 7 -5 3 -12z m39 -115 c14 -36 14
-38 -5 -46 -29 -11 -37 -1 -33 41 4 44 3 42 14 42 5 0 16 -17 24 -37z m-79
-67 c-5 -14 -9 -15 -15 -5 -5 8 -3 17 4 21 15 9 19 4 11 -16z m140 8 c11 -28
7 -36 -16 -28 -30 9 -30 8 -22 28 8 20 30 21 38 0z m-27 -64 c6 0 11 -13 11
-30 -1 -16 -4 -30 -7 -30 -17 1 -31 19 -25 33 4 12 -1 20 -17 27 l-24 11 25
-6 c14 -2 30 -5 37 -5z m893 -150 c12 -8 11 -10 -7 -10 -13 0 -23 5 -23 10 0
13 11 13 30 0z m130 -21 c0 -4 -7 -6 -15 -3 -8 4 -15 10 -15 15 0 4 7 6 15 3
8 -4 15 -10 15 -15z m-975 -109 c3 -5 30 -17 60 -26 l55 -15 -23 -30 c-28 -39
-104 -89 -134 -89 -12 0 -40 7 -62 16 -33 13 -41 22 -51 60 -7 24 -11 46 -9
47 19 12 79 30 101 31 14 1 24 4 21 9 -2 4 5 7 16 7 11 0 23 -4 26 -10z m-764
-350 c24 -20 24 -20 5 -35 -11 -8 -32 -15 -47 -15 -15 0 -34 -3 -43 -6 -12 -4
-16 0 -16 15 0 16 6 21 24 21 29 0 44 19 25 31 -11 7 -9 9 7 9 12 0 32 -9 45
-20z m1694 -10 c-3 -5 -12 -10 -18 -10 -7 0 -6 4 3 10 19 12 23 12 15 0z
m-127 -26 c29 -12 44 -34 23 -34 -5 0 -18 -3 -28 -6 -11 -3 -8 0 6 9 20 12 21
15 7 20 -9 4 -16 2 -16 -3 0 -5 -16 0 -35 11 -20 12 -35 16 -35 10 0 -6 4 -11
10 -11 5 0 7 -7 3 -15 -3 -9 -2 -15 3 -14 5 1 26 -5 46 -14 43 -19 58 -21 58
-7 0 6 5 10 11 10 6 0 9 -5 7 -12 -8 -23 42 -67 70 -63 18 2 33 -4 45 -19 11
-13 15 -15 12 -5 -4 11 1 18 14 22 18 4 20 0 18 -36 -3 -43 16 -72 40 -63 8 3
11 1 8 -4 -3 -5 -1 -18 4 -29 10 -17 15 -18 42 -8 27 11 33 10 49 -11 13 -16
17 -32 13 -56 -3 -20 -1 -36 6 -40 6 -4 11 -16 11 -26 0 -19 -1 -19 -33 -3
-29 15 -32 21 -29 54 2 22 -1 40 -9 44 -9 6 -10 3 -6 -9 4 -10 4 -29 1 -42 -6
-22 -11 -25 -42 -22 -19 2 -37 9 -40 16 -3 10 4 12 32 7 36 -7 36 -7 36 26
l-1 34 -17 -30 -17 -30 -3 45 c-5 67 -18 69 -33 6 -7 -31 -17 -56 -23 -56 -6
0 -21 -3 -33 -6 -24 -7 -37 17 -42 75 0 7 -7 11 -16 8 -8 -4 -17 -2 -20 3 -4
6 2 10 12 10 16 1 16 2 2 13 -9 7 -16 14 -17 17 -4 22 -16 40 -28 40 -16 0
-19 -16 -5 -24 5 -3 12 -21 15 -40 4 -19 13 -39 21 -46 8 -6 19 -28 26 -48 6
-20 21 -53 32 -71 12 -19 20 -46 19 -59 -3 -35 16 -66 32 -52 10 8 17 4 30
-14 28 -43 22 -46 -81 -44 l-98 2 80 6 80 6 -86 2 c-104 2 -122 12 -117 67 2
32 7 39 21 37 25 -4 21 7 -8 18 -19 7 -25 17 -25 39 0 16 -6 31 -14 34 -9 4
-16 32 -21 84 -6 71 -33 227 -50 296 -7 27 -6 28 21 21 16 -4 44 -13 62 -20z
m147 6 c3 -5 1 -10 -4 -10 -6 0 -11 5 -11 10 0 6 2 10 4 10 3 0 8 -4 11 -10z
m-75 -15 c9 -11 10 -15 1 -15 -7 0 -19 7 -27 15 -13 13 -13 15 -1 15 8 0 20
-7 27 -15z m80 -24 c0 -13 -29 -35 -37 -28 -7 8 15 37 28 37 5 0 9 -4 9 -9z
m79 -6 c24 -9 51 -13 61 -10 9 3 24 3 33 0 19 -8 41 -60 31 -76 -4 -7 -3 -10
2 -6 6 3 14 -14 20 -38 5 -24 6 -42 2 -39 -4 3 -5 -10 -2 -28 3 -19 2 -28 -3
-22 -4 6 -25 14 -46 18 -31 6 -39 12 -43 36 -4 16 -13 31 -21 34 -8 3 -11 10
-8 16 3 6 -1 13 -9 16 -9 3 -16 12 -16 20 0 8 -4 14 -9 14 -5 0 -12 11 -15 25
-4 14 -13 25 -21 25 -19 0 -19 -14 0 -30 21 -17 19 -29 -5 -23 -10 3 -19 8
-18 12 2 19 -3 31 -12 26 -6 -4 -8 -11 -5 -16 4 -5 -1 -9 -9 -9 -9 0 -16 4
-16 8 0 15 36 42 45 35 4 -5 5 0 2 10 -8 21 4 21 62 2z m16 -114 c-3 -5 -1
-12 5 -16 14 -9 12 -37 -2 -33 -7 3 -12 14 -11 26 1 29 2 32 9 32 3 0 3 -4 -1
-9z m-1828 -7 c-3 -3 -12 -4 -19 -1 -8 3 -5 6 6 6 11 1 17 -2 13 -5z m-87
-151 c0 -15 2 -15 9 -4 8 12 12 12 25 2 36 -30 -24 -48 -61 -18 -20 15 -15 37
7 37 12 0 20 -7 20 -17z m238 -49 c-3 -16 -4 -15 -18 1 -9 11 -10 16 -2 11 8
-5 12 -1 13 11 0 10 3 13 6 6 2 -7 3 -20 1 -29z m-278 16 c0 -5 -4 -10 -9 -10
-6 0 -13 5 -16 10 -3 6 1 10 9 10 9 0 16 -4 16 -10z m1896 -57 c-11 -11 -19 6
-11 24 8 17 8 17 12 0 3 -10 2 -21 -1 -24z m-199 -15 c-3 -8 -6 -5 -6 6 -1 11
2 17 5 13 3 -3 4 -12 1 -19z m331 -14 c3 3 14 -1 24 -11 10 -9 21 -13 25 -9 4
4 1 11 -7 16 -17 11 -9 13 15 4 21 -8 41 -49 49 -99 16 -101 17 -116 11 -135
-6 -18 -8 -19 -28 -5 -12 8 -44 18 -71 22 -38 5 -46 8 -31 14 17 6 17 8 3 8
-13 1 -18 9 -18 29 l0 27 19 -24 c15 -20 19 -21 24 -7 4 9 16 16 28 16 15 0
19 4 15 16 -3 9 -6 20 -6 25 0 5 -6 9 -14 9 -9 0 -12 -7 -9 -20 3 -11 0 -20
-6 -20 -18 0 -12 39 8 49 10 6 21 7 25 4 3 -3 6 -2 6 4 0 5 -3 13 -7 17 -5 4
-8 13 -8 19 0 7 -8 11 -18 11 -9 -1 -15 2 -12 6 3 5 1 11 -5 15 -5 3 -10 1
-10 -4 0 -14 -38 9 -45 27 -3 10 0 10 16 1 11 -6 23 -8 27 -5z m-104 -3 c8
-13 -3 -19 -24 -14 -11 3 -17 9 -14 14 7 11 31 12 38 0z m-217 -93 c-2 -13 -4
-3 -4 22 0 25 2 35 4 23 2 -13 2 -33 0 -45z m247 27 c3 -8 1 -15 -4 -15 -6 0
-10 7 -10 15 0 8 2 15 4 15 2 0 6 -7 10 -15z m86 -5 c0 -13 -11 -13 -30 0 -12
8 -11 10 8 10 12 0 22 -4 22 -10z m-1870 -12 c0 -4 -16 -8 -35 -8 -19 0 -35 5
-35 10 0 6 16 10 35 8 19 -1 35 -6 35 -10z m40 -9 c0 -4 -7 -6 -15 -3 -8 4
-15 10 -15 15 0 4 7 6 15 3 8 -4 15 -10 15 -15z m50 2 c0 -10 -26 -9 -36 2 -4
4 2 7 14 7 12 0 22 -4 22 -9z m1770 -26 c0 -8 -4 -15 -9 -15 -5 0 -11 7 -15
15 -3 9 0 15 9 15 8 0 15 -7 15 -15z m-292 -38 c15 4 15 3 2 -6 -22 -15 -30
-14 -29 7 0 9 3 12 5 5 3 -7 13 -9 22 -6z m921 -159 c1 -27 -3 -48 -8 -48 -10
0 -29 47 -30 70 0 8 -1 36 -2 62 -1 29 4 55 12 65 12 14 15 9 20 -43 4 -32 7
-80 8 -106z m-462 26 c15 -59 67 -174 82 -183 6 -4 13 -26 17 -49 6 -41 5 -44
-36 -82 -39 -36 -81 -55 -65 -31 3 5 1 12 -5 16 -22 13 -59 106 -54 133 3 16
1 47 -5 69 -9 31 -8 49 3 79 7 22 16 61 21 89 6 41 9 46 17 31 6 -11 17 -43
25 -72z m-670 -236 c18 -27 32 -61 36 -91 l7 -47 -30 15 c-24 12 -30 23 -35
62 -3 27 -8 60 -10 76 -3 15 -3 27 -1 27 1 0 16 -19 33 -42z m-92 -51 c36 -21
40 -26 37 -57 -5 -43 -12 -56 -23 -39 -5 9 -10 5 -14 -14 -6 -22 -10 -25 -25
-17 -14 8 -16 17 -10 50 4 22 3 40 -1 40 -5 0 -12 -18 -15 -40 -6 -39 -7 -40
-25 -24 -20 18 -26 64 -8 64 7 0 8 11 4 30 -6 27 -4 30 17 30 13 0 41 -11 63
-23z m57 -72 c-2 -14 -6 -25 -8 -25 -2 0 -4 11 -4 25 0 14 4 25 9 25 4 0 6
-11 3 -25z m2515 19 c-3 -3 -12 -4 -19 -1 -8 3 -5 6 6 6 11 1 17 -2 13 -5z
m-3586 -51 c2 -41 6 -65 14 -88 l7 -20 -13 20 c-7 11 -15 22 -18 25 -10 8 -31
60 -31 75 0 8 9 15 20 15 15 0 20 -7 21 -27z m1171 -38 c9 -20 9 -20 -6 -1 -9
11 -16 27 -15 35 0 14 1 14 6 1 3 -8 10 -24 15 -35z m674 -30 c-6 -25 -31 -44
-42 -32 -3 3 -2 26 2 52 l7 47 20 -20 c14 -15 18 -27 13 -47z m-895 18 c-8
-15 -10 -15 -11 -2 0 17 10 32 18 25 2 -3 -1 -13 -7 -23z m-1013 5 c-2 -6 -10
-13 -16 -14 -9 -2 -9 -1 -1 3 8 4 7 8 -2 14 -11 7 -10 9 4 9 10 0 17 -5 15
-12z m1179 -20 c-3 -8 -6 -5 -6 6 -1 11 2 17 5 13 3 -3 4 -12 1 -19z m2460 6
c-3 -3 -12 -4 -19 -1 -8 3 -5 6 6 6 11 1 17 -2 13 -5z m-3837 -20 c0 -2 -11
-4 -25 -4 -14 0 -25 4 -25 9 0 4 11 6 25 3 14 -2 25 -6 25 -8z m1268 -54 c4
-32 49 -167 69 -203 17 -32 33 -171 38 -327 1 -58 4 -109 5 -115 1 -5 2 -12 1
-15 -10 -26 -10 -302 0 -370 6 -47 12 -93 13 -102 0 -9 4 -14 8 -12 4 3 8 -4
8 -15 0 -11 -4 -23 -10 -26 -5 -3 -10 -28 -10 -56 0 -36 4 -49 14 -49 23 0 29
-18 32 -97 2 -41 10 -88 18 -105 9 -17 16 -39 16 -49 0 -12 5 -16 15 -13 8 4
15 2 15 -4 0 -5 -10 -12 -22 -15 -17 -5 -32 4 -65 39 l-44 45 -9 136 c-6 74
-13 139 -16 144 -3 5 4 21 15 35 12 15 21 37 21 49 0 27 -33 72 -60 80 -16 5
-20 16 -21 58 0 44 -13 138 -46 325 -3 19 -12 36 -20 39 -10 4 -12 14 -8 34 4
16 2 29 -3 29 -13 0 -21 99 -25 303 -3 133 -1 167 9 167 10 0 12 11 8 44 -5
31 -2 49 7 60 20 22 43 15 47 -14z m2397 -20 c3 -5 -1 -10 -9 -10 -9 0 -16 5
-16 10 0 6 4 10 9 10 6 0 13 -4 16 -10z m214 -5 c-3 -2 -22 -7 -42 -10 -45 -6
-45 -21 1 -18 17 1 32 -1 32 -5 0 -5 -16 -9 -36 -10 -20 -2 -45 -7 -55 -12
-11 -7 -20 -7 -24 0 -3 5 -11 10 -16 10 -6 0 -7 -5 -3 -12 4 -7 3 -8 -4 -4 -7
4 -12 1 -12 -6 0 -10 -2 -10 -9 1 -6 9 -4 19 5 28 8 8 14 19 14 24 0 6 4 8 8
5 5 -3 22 -1 38 4 31 9 111 13 103 5z m-648 -92 c-15 -11 -14 -12 2 -13 23 0
22 -20 -2 -20 -12 0 -20 9 -23 24 -6 31 9 49 27 33 10 -9 9 -14 -4 -24z m299
-43 c0 -5 -5 -10 -11 -10 -5 0 -7 5 -4 10 3 6 8 10 11 10 2 0 4 -4 4 -10z
m-3963 -37 c-3 -10 -5 -4 -5 12 0 17 2 24 5 18 2 -7 2 -21 0 -30z m-39 -11 c5
-31 -15 -27 -21 3 -3 16 0 24 7 22 6 -2 12 -13 14 -25z m4202 18 c0 -5 -5 -10
-11 -10 -5 0 -7 5 -4 10 3 6 8 10 11 10 2 0 4 -4 4 -10z m-856 -147 c6 -19 4
-23 -16 -22 -22 0 -22 1 -3 9 16 7 17 9 3 9 -20 1 -25 15 -19 55 l4 31 12 -30
c7 -16 16 -40 19 -52z m346 47 c0 -5 -4 -10 -10 -10 -5 0 -10 5 -10 10 0 6 5
10 10 10 6 0 10 -4 10 -10z m604 -21 c-17 -7 -17 -8 -1 -8 23 -1 22 -21 -2
-21 -11 0 -25 -2 -33 -5 -9 -4 -14 3 -16 19 -1 20 4 25 26 28 35 5 51 -3 26
-13z m-384 1 c0 -5 -12 -10 -27 -10 -22 0 -25 2 -13 10 20 13 40 13 40 0z
m183 3 c-7 -2 -21 -2 -30 0 -10 3 -4 5 12 5 17 0 24 -2 18 -5z m-395 -51 c-10
-2 -18 -8 -18 -13 0 -6 -4 -7 -10 -4 -15 9 12 34 30 27 12 -5 12 -7 -2 -10z
m153 7 c-16 -6 -28 -6 -35 1 -7 7 1 10 25 9 32 0 33 -1 10 -10z m114 0 c4 -5
-11 -9 -34 -9 -22 0 -42 4 -45 9 -3 5 12 9 34 9 22 0 42 -3 45 -9z m-195 -3
c0 -2 -7 -7 -16 -10 -8 -3 -12 -2 -9 4 6 10 25 14 25 6z m-405 -43 c5 -20 2
-31 -12 -41 -17 -14 -17 -14 3 -10 23 6 19 17 60 -219 3 -14 -1 -23 -8 -23
-10 0 -10 -2 1 -9 10 -6 10 -10 1 -16 -16 -10 -57 2 -57 17 -1 7 -4 29 -7 48
-15 83 -23 216 -13 228 6 8 6 12 -2 12 -6 0 -11 9 -11 20 0 31 36 26 45 -7z
m1122 21 c-3 -3 -12 -4 -19 -1 -8 3 -5 6 6 6 11 1 17 -2 13 -5z m-747 -8 c0
-11 -19 -15 -25 -6 -3 5 1 10 9 10 9 0 16 -2 16 -4z m155 -6 c-3 -5 -10 -10
-16 -10 -5 0 -9 5 -9 10 0 6 7 10 16 10 8 0 12 -4 9 -10z m-155 -40 c22 -6 20
-7 -17 -13 -24 -4 -43 -12 -43 -18 0 -5 -4 -7 -10 -4 -5 3 -10 17 -10 31 0 26
-2 26 80 4z m870 10 c0 -11 -2 -11 -37 -15 -25 -2 -31 10 -10 18 21 9 47 7 47
-3z m-652 -7 c-10 -2 -26 -2 -35 0 -10 3 -2 5 17 5 19 0 27 -2 18 -5z m-165
-40 c-7 -2 -21 -2 -30 0 -10 3 -4 5 12 5 17 0 24 -2 18 -5z m82 -3 c3 -5 -3
-10 -15 -10 -12 0 -18 5 -15 10 3 6 10 10 15 10 5 0 12 -4 15 -10z m-15 -30
c0 -5 -7 -7 -15 -4 -8 4 -15 8 -15 10 0 2 7 4 15 4 8 0 15 -4 15 -10z m105 0
c3 -5 1 -10 -4 -10 -6 0 -11 5 -11 10 0 6 2 10 4 10 3 0 8 -4 11 -10z m404
-26 c2 -2 -5 -4 -17 -4 -12 0 -22 -4 -22 -10 0 -5 -6 -10 -14 -10 -9 0 -12 7
-9 20 4 16 11 19 32 13 14 -3 28 -7 30 -9z m-84 -4 c3 -5 -1 -10 -9 -10 -9 0
-16 5 -16 10 0 6 4 10 9 10 6 0 13 -4 16 -10z m-417 -7 c-10 -2 -26 -2 -35 0
-10 3 -2 5 17 5 19 0 27 -2 18 -5z m72 -33 c0 -5 -4 -10 -10 -10 -5 0 -10 5
-10 10 0 6 5 10 10 10 6 0 10 -4 10 -10z m-697 -92 c-11 -21 -18 -4 -14 30 l5
37 6 -30 c4 -16 5 -33 3 -37z m7 -48 c0 -5 -9 -10 -21 -10 -11 0 -17 5 -14 10
3 6 13 10 21 10 8 0 14 -4 14 -10z m-1110 -885 c0 -12 -29 -3 -34 10 -4 13 -2
14 14 5 11 -6 20 -13 20 -15z m-205 -15 c4 0 4 4 0 9 -10 18 13 21 46 6 26
-11 29 -15 14 -16 -11 -1 -32 -3 -47 -5 -17 -2 -36 5 -50 18 l-23 20 27 -16
c15 -9 30 -16 33 -16z m-1188 -45 c0 -8 -6 -15 -13 -15 -8 0 -11 6 -8 15 4 8
9 15 13 15 4 0 8 -7 8 -15z m1196 8 c-7 -2 -21 -2 -30 0 -10 3 -4 5 12 5 17 0
24 -2 18 -5z m92 -13 c3 -6 -1 -7 -9 -4 -18 7 -21 14 -7 14 6 0 13 -4 16 -10z
m445 -20 c0 -5 -2 -10 -4 -10 -3 0 -8 5 -11 10 -3 6 -1 10 4 10 6 0 11 -4 11
-10z"/>
<path d="M2321 3324 c0 -11 3 -14 6 -6 3 7 2 16 -1 19 -3 4 -6 -2 -5 -13z"/>
<path d="M2387 3319 c7 -7 15 -10 18 -7 3 3 -2 9 -12 12 -14 6 -15 5 -6 -5z"/>
<path d="M2400 3285 c0 -8 4 -15 9 -15 5 0 18 -3 28 -7 13 -4 12 -1 -6 15 -29
26 -31 27 -31 7z"/>
<path d="M2332 3265 c0 -16 2 -22 5 -12 2 9 2 23 0 30 -3 6 -5 -1 -5 -18z"/>
<path d="M2560 3262 c0 -16 -5 -20 -17 -16 -14 5 -15 4 -4 -4 9 -7 12 -19 7
-38 -5 -23 -4 -26 4 -14 9 11 10 4 7 -33 -3 -29 0 -50 7 -54 6 -3 8 -3 4 2 -4
4 -3 15 4 22 11 14 15 89 6 125 -6 27 -18 34 -18 10z"/>
<path d="M2390 3230 c0 -5 5 -10 11 -10 5 0 7 5 4 10 -3 6 -8 10 -11 10 -2 0
-4 -4 -4 -10z"/>
<path d="M2340 3194 c0 -14 4 -23 9 -20 5 3 7 15 4 26 -7 28 -13 25 -13 -6z"/>
<path d="M2750 2889 c0 -5 5 -7 10 -4 6 3 10 8 10 11 0 2 -4 4 -10 4 -5 0 -10
-5 -10 -11z"/>
<path d="M2760 2860 c0 -5 5 -10 11 -10 5 0 7 5 4 10 -3 6 -8 10 -11 10 -2 0
-4 -4 -4 -10z"/>
<path d="M2026 2427 c3 -10 9 -15 12 -12 3 3 0 11 -7 18 -10 9 -11 8 -5 -6z"/>
<path d="M2118 1439 c5 -13 14 -25 20 -27 8 -2 9 3 4 19 -5 13 -14 25 -20 27
-8 2 -9 -3 -4 -19z"/>
<path d="M2172 1260 c0 -19 2 -27 5 -17 2 9 2 25 0 35 -3 9 -5 1 -5 -18z"/>
<path d="M2130 1228 c0 -19 2 -20 10 -8 13 19 13 30 0 30 -5 0 -10 -10 -10
-22z"/>
<path d="M2150 1221 c0 -6 5 -11 10 -11 6 0 10 -5 10 -11 0 -6 -7 -9 -15 -5
-20 7 -19 -4 5 -34 l20 -25 0 36 c0 21 -7 42 -15 49 -10 9 -15 9 -15 1z"/>
<path d="M3289 4077 c-9 -12 -19 -32 -23 -44 -10 -30 -28 -42 -51 -33 -18 7
-19 8 -2 15 21 9 22 25 1 25 -9 0 -18 -9 -21 -20 -3 -11 -9 -20 -14 -20 -5 0
-9 -11 -9 -25 0 -25 0 -25 93 -24 50 1 82 4 70 6 -27 5 -27 3 -8 39 18 34 20
74 4 74 -6 0 -9 7 -5 15 8 23 -17 17 -35 -8z m-59 -101 c0 -2 -7 -7 -16 -10
-8 -3 -12 -2 -9 4 6 10 25 14 25 6z"/>
<path d="M4281 4074 c0 -11 3 -14 6 -6 3 7 2 16 -1 19 -3 4 -6 -2 -5 -13z"/>
<path d="M1 3939 c-1 -8 6 -24 15 -35 15 -19 15 -19 6 1 -5 11 -12 27 -15 35
-5 13 -6 13 -6 -1z"/>
<path d="M3223 3923 c-7 -2 -13 -11 -13 -19 0 -8 -7 -17 -16 -21 -10 -3 -12
-8 -5 -12 6 -4 1 -18 -14 -35 -14 -16 -25 -33 -25 -37 0 -4 -13 -21 -30 -37
-38 -38 -39 -55 -4 -46 18 5 25 3 21 -3 -7 -10 5 -19 28 -22 6 0 10 9 10 22 0
12 5 21 13 20 7 -2 12 8 12 25 0 15 11 44 25 64 14 20 25 42 25 48 0 6 7 22
16 35 16 24 16 25 -7 24 -13 0 -30 -3 -36 -6z"/>
<path d="M3400 3899 c0 -5 5 -7 10 -4 6 3 10 8 10 11 0 2 -4 4 -10 4 -5 0 -10
-5 -10 -11z"/>
<path d="M3484 3890 c-31 -12 -80 -73 -99 -123 -16 -42 -16 -49 -1 -94 13 -39
20 -48 39 -48 21 0 24 5 24 40 2 93 10 129 36 151 31 26 116 41 146 25 19 -11
20 -10 10 13 -6 13 -22 29 -36 35 -28 13 -89 14 -119 1z"/>
<path d="M39 3863 c12 -24 5 -56 -10 -47 -6 3 -7 15 -4 27 2 12 2 16 -1 9 -3
-6 -10 -10 -15 -6 -5 3 -9 -6 -9 -19 0 -34 47 -45 53 -13 4 18 5 18 6 -4 2
-27 80 -183 81 -162 0 7 -11 34 -26 59 -14 25 -23 52 -20 60 3 7 -1 16 -9 19
-8 4 -15 16 -15 28 0 11 -10 32 -21 46 -17 21 -19 22 -10 3z"/>
<path d="M731 3790 c-19 -5 -52 -26 -77 -52 -51 -52 -68 -116 -48 -183 l12
-40 2 35 c1 19 4 29 7 23 7 -18 49 -16 68 3 18 18 17 65 -1 71 -6 2 -26 -8
-43 -23 l-32 -27 7 29 c10 44 31 81 49 88 9 3 40 9 69 12 41 5 59 2 80 -11 14
-9 26 -22 26 -28 0 -6 11 -22 24 -36 14 -15 29 -42 34 -61 5 -20 15 -34 22
-32 7 2 17 -3 21 -10 5 -7 7 15 4 50 -6 96 -52 154 -147 188 -22 8 -41 14 -42
13 0 -1 -16 -5 -35 -9z"/>
<path d="M3603 3764 c-10 -26 12 -38 49 -26 32 10 33 10 9 18 -23 7 -24 8 -5
15 15 6 12 8 -14 8 -21 1 -35 -5 -39 -15z"/>
<path d="M3481 3741 c-24 -24 -18 -65 8 -52 18 10 22 11 49 11 30 0 45 16 37
39 -9 28 -67 29 -94 2z"/>
<path d="M0 3705 c0 -36 8 -64 29 -100 82 -146 111 -199 111 -206 0 -5 7 -9
15 -9 8 0 12 -6 9 -14 -3 -7 1 -20 8 -28 7 -7 18 -23 24 -33 11 -21 84 -32 84
-13 0 12 -78 88 -91 88 -6 0 -7 5 -4 10 3 6 1 10 -4 10 -6 0 -11 8 -11 19 0
10 -8 29 -17 42 -29 40 -44 69 -39 78 3 4 -8 20 -23 35 -18 17 -27 34 -24 46
3 11 -4 24 -17 33 -15 10 -18 17 -10 22 7 4 8 10 3 14 -5 3 -17 17 -26 31
l-17 24 0 -49z"/>
<path d="M3569 3688 c-6 -11 -8 -22 -6 -25 7 -7 47 16 47 27 0 5 7 6 17 3 10
-4 14 -2 10 4 -11 18 -57 12 -68 -9z"/>
<path d="M3066 3678 c-8 -13 -17 -34 -19 -47 -2 -12 -10 -27 -18 -32 -12 -7
-12 -9 1 -10 10 0 7 -4 -7 -11 -19 -9 -48 -58 -48 -82 0 -5 -7 -11 -15 -13
-13 -4 -13 -3 0 6 13 9 13 11 -2 11 -10 0 -18 4 -18 10 0 5 -6 7 -14 4 -8 -3
-14 -14 -13 -25 1 -16 9 -19 60 -19 37 0 56 4 52 10 -3 6 3 22 14 36 15 19 21
41 21 76 0 28 7 59 16 74 9 13 14 27 11 30 -3 3 -12 -5 -21 -18z"/>
<path d="M740 3646 c0 -8 8 -24 18 -36 13 -17 24 -20 44 -15 69 17 55 65 -18
65 -31 0 -44 -4 -44 -14z m77 -22 c-3 -3 -12 -4 -19 -1 -8 3 -5 6 6 6 11 1 17
-2 13 -5z"/>
<path d="M150 3617 c0 -17 29 -56 30 -40 0 6 -5 15 -11 19 -8 5 -8 9 1 14 8 5
7 9 -4 13 -10 4 -16 1 -16 -6z"/>
<path d="M3407 3613 c-2 -5 -1 -19 4 -33 6 -21 7 -22 9 -5 1 19 2 19 9 1 5
-13 10 -16 15 -8 4 6 2 21 -4 32 -11 20 -26 26 -33 13z"/>
<path d="M216 3487 c3 -10 9 -15 12 -12 3 3 0 11 -7 18 -10 9 -11 8 -5 -6z"/>
<path d="M3430 3489 c0 -5 5 -7 10 -4 6 3 10 8 10 11 0 2 -4 4 -10 4 -5 0 -10
-5 -10 -11z"/>
<path d="M4352 3487 c-7 -8 -6 -18 4 -31 13 -19 14 -18 14 12 0 35 -3 38 -18
19z"/>
<path d="M930 3443 c0 -22 2 -25 10 -13 13 20 13 40 0 40 -5 0 -10 -12 -10
-27z"/>
<path d="M230 3451 c0 -5 5 -13 10 -16 6 -3 10 -2 10 4 0 5 -4 13 -10 16 -5 3
-10 2 -10 -4z"/>
<path d="M2968 3425 c-56 -90 -62 -100 -63 -107 0 -3 -3 -10 -7 -14 -5 -4 -8
-17 -8 -28 1 -21 1 -21 16 -1 8 11 33 53 55 93 43 79 49 123 7 57z"/>
<path d="M4346 3391 c-19 -7 -18 -8 5 -15 22 -7 22 -9 5 -13 -18 -5 -18 -6 5
-19 13 -7 18 -13 11 -14 -15 0 -6 -20 9 -20 13 0 11 54 -3 72 -9 11 -20 13
-32 9z"/>
<path d="M96 3358 c-9 -32 -3 -275 8 -285 4 -4 6 20 5 54 -1 33 0 64 3 69 3 5
3 50 -1 99 -6 68 -9 83 -15 63z"/>
<path d="M284 3351 c3 -4 10 -21 16 -37 9 -22 13 -25 20 -14 5 9 5 19 -2 27
-6 7 -7 13 -2 13 11 0 -18 20 -29 20 -5 0 -6 -4 -3 -9z"/>
<path d="M231 3239 c0 -28 2 -31 9 -14 5 11 9 14 9 6 1 -23 42 -82 52 -75 6 4
6 10 0 18 -6 7 -8 16 -4 19 3 4 -1 7 -10 7 -9 0 -17 5 -17 10 0 6 5 10 11 10
8 0 9 4 0 13 -6 8 -8 17 -4 20 3 4 1 7 -5 7 -5 0 -17 3 -26 6 -13 5 -16 -1
-15 -27z"/>
<path d="M4330 3260 c-11 -7 -4 -9 22 -7 21 2 41 6 44 10 11 11 -49 8 -66 -3z"/>
<path d="M4370 3230 c0 -5 4 -10 9 -10 6 0 13 5 16 10 3 6 -1 10 -9 10 -9 0
-16 -4 -16 -10z"/>
<path d="M4365 3200 c-19 -8 -19 -8 5 -18 18 -8 20 -11 8 -11 -22 -1 -24 -21
-3 -21 14 0 19 -14 18 -47 -1 -7 4 -13 9 -13 6 0 7 21 4 53 -3 28 -5 55 -6 60
0 9 -9 8 -35 -3z"/>
<path d="M222 3055 c0 -16 2 -22 5 -12 2 9 2 23 0 30 -3 6 -5 -1 -5 -18z"/>
<path d="M4601 3013 c0 -20 4 -33 12 -33 8 0 7 -4 -3 -10 -13 -8 -12 -10 3
-10 19 0 22 11 8 26 -5 5 -11 20 -14 34 -4 21 -4 20 -6 -7z"/>
<path d="M1 2918 c-1 -89 1 -98 18 -98 38 0 40 21 11 110 l-29 85 0 -97z"/>
<path d="M4390 2990 c0 -5 5 -10 10 -10 6 0 10 5 10 10 0 6 -4 10 -10 10 -5 0
-10 -4 -10 -10z"/>
<path d="M77 2637 c-11 -555 -9 -787 7 -787 8 0 16 14 20 33 8 42 -1 435 -10
466 -5 17 -4 22 4 17 7 -4 12 -1 12 8 0 9 -4 16 -10 16 -5 0 -10 17 -10 38 0
27 3 33 10 22 8 -12 10 -11 10 7 0 12 -6 24 -12 26 -10 4 -10 7 0 14 9 7 12
57 10 199 0 104 2 199 6 211 5 15 2 25 -11 32 -10 6 -12 11 -5 11 16 0 16 17
-1 17 -11 0 -15 -64 -20 -330z m20 226 c-3 -10 -5 -2 -5 17 0 19 2 27 5 18 2
-10 2 -26 0 -35z"/>
<path d="M4395 2960 c-3 -5 1 -10 9 -10 10 0 16 -9 16 -22 0 -12 3 -19 6 -15
9 9 -4 57 -16 57 -5 0 -12 -4 -15 -10z"/>
<path d="M4415 2890 c4 -6 11 -8 16 -5 14 9 11 15 -7 15 -8 0 -12 -5 -9 -10z"/>
<path d="M4365 2850 c-4 -6 7 -8 32 -4 50 8 55 14 10 14 -20 0 -39 -5 -42 -10z"/>
<path d="M4750 2817 c0 -16 39 -83 65 -112 27 -29 27 -29 -5 30 -31 58 -60 97
-60 82z"/>
<path d="M4435 2759 c-4 -6 -5 -12 -2 -15 2 -3 7 2 10 11 7 17 1 20 -8 4z"/>
<path d="M4385 2720 l-50 -7 58 -1 c32 -1 57 2 57 8 0 6 -3 9 -7 8 -5 0 -30
-4 -58 -8z"/>
<path d="M4633 2723 c-20 -7 -15 -23 7 -23 11 0 20 4 20 9 0 13 -12 19 -27 14z"/>
<path d="M4635 2680 c-3 -4 -1 -20 5 -34 6 -17 6 -26 0 -26 -13 0 -13 -27 0
-35 5 -3 18 -1 27 4 17 10 17 10 1 11 -21 0 -23 11 -5 29 10 11 9 14 -1 18 -9
4 -10 9 -2 18 8 9 7 14 -4 18 -9 4 -18 2 -21 -3z"/>
<path d="M221 2654 c0 -11 3 -14 6 -6 3 7 2 16 -1 19 -3 4 -6 -2 -5 -13z"/>
<path d="M4450 2660 c-12 -7 -10 -9 7 -7 12 0 19 5 17 9 -6 10 -6 10 -24 -2z"/>
<path d="M4440 2620 c-13 -8 -12 -10 3 -10 9 0 17 5 17 10 0 12 -1 12 -20 0z"/>
<path d="M4378 2613 c7 -3 16 -2 19 1 4 3 -2 6 -13 5 -11 0 -14 -3 -6 -6z"/>
<path d="M4320 2579 c-28 -5 -24 -6 23 -6 31 -1 57 0 57 2 0 7 -49 10 -80 4z"/>
<path d="M222 2560 c0 -14 2 -19 5 -12 2 6 2 18 0 25 -3 6 -5 1 -5 -13z"/>
<path d="M256 2490 c2 -47 12 -116 23 -155 20 -74 28 -71 10 5 -6 25 -13 61
-16 80 -22 165 -21 161 -17 70z"/>
<path d="M4588 2563 c7 -3 16 -2 19 1 4 3 -2 6 -13 5 -11 0 -14 -3 -6 -6z"/>
<path d="M4440 2550 c-12 -8 -9 -10 13 -10 16 0 26 4 22 10 -8 12 -16 12 -35
0z"/>
<path d="M4280 2500 c0 -10 5 -22 12 -26 7 -5 9 -2 5 9 -3 9 -1 17 6 20 6 2 4
6 -6 10 -12 5 -17 1 -17 -13z"/>
<path d="M4327 2507 c-7 -4 14 -7 46 -5 32 1 60 5 63 10 6 10 -93 6 -109 -5z"/>
<path d="M4458 2508 c9 -9 15 -9 24 0 9 9 7 12 -12 12 -19 0 -21 -3 -12 -12z"/>
<path d="M4340 2470 c-12 -8 -11 -10 8 -10 12 0 22 5 22 10 0 13 -11 13 -30 0z"/>
<path d="M4403 2473 c15 -2 39 -2 55 0 15 2 2 4 -28 4 -30 0 -43 -2 -27 -4z"/>
<path d="M4496 2465 c-8 -9 -18 -16 -21 -15 -19 1 -25 -1 -25 -10 0 -18 26
-10 50 15 25 27 22 35 -4 10z"/>
<path d="M4570 2465 c-11 -13 -10 -14 4 -9 9 3 16 10 16 15 0 13 -6 11 -20 -6z"/>
<path d="M4195 2430 c3 -5 10 -10 16 -10 5 0 9 5 9 10 0 6 -7 10 -16 10 -8 0
-12 -4 -9 -10z"/>
<path d="M4313 2433 c9 -2 25 -2 35 0 9 3 1 5 -18 5 -19 0 -27 -2 -17 -5z"/>
<path d="M4478 2414 c-4 -3 -4 -12 -1 -20 3 -9 -2 -14 -16 -14 -12 0 -21 -4
-21 -10 0 -5 14 -10 31 -10 24 0 30 4 25 16 -3 8 -2 13 2 11 4 -3 14 2 22 11
13 14 12 15 -2 10 -8 -4 -20 -2 -25 3 -5 5 -12 7 -15 3z"/>
<path d="M4310 2400 c-12 -8 -9 -10 12 -10 15 0 30 5 33 10 8 13 -25 13 -45 0z"/>
<path d="M220 2381 c0 -6 5 -13 10 -16 6 -3 10 1 10 9 0 9 -4 16 -10 16 -5 0
-10 -4 -10 -9z"/>
<path d="M4358 2375 c-2 -2 -20 -5 -41 -7 -58 -4 -32 -13 39 -13 41 0 64 4 64
11 0 10 -53 18 -62 9z"/>
<path d="M4250 2359 c0 -5 5 -7 10 -4 6 3 10 8 10 11 0 2 -4 4 -10 4 -5 0 -10
-5 -10 -11z"/>
<path d="M3266 2351 c-4 -7 -5 -15 -2 -18 9 -9 19 4 14 18 -4 11 -6 11 -12 0z"/>
<path d="M4464 2339 c-9 -16 2 -22 21 -11 15 8 16 10 1 15 -8 3 -18 2 -22 -4z"/>
<path d="M4350 2330 c0 -5 20 -10 45 -10 25 0 45 5 45 10 0 6 -20 10 -45 10
-25 0 -45 -4 -45 -10z"/>
<path d="M2980 2325 c0 -5 5 -17 10 -25 5 -8 10 -10 10 -5 0 6 -5 17 -10 25
-5 8 -10 11 -10 5z"/>
<path d="M4308 2293 c6 -2 18 -2 25 0 6 3 1 5 -13 5 -14 0 -19 -2 -12 -5z"/>
<path d="M4370 2260 c0 -6 11 -8 28 -4 39 10 40 14 4 14 -18 0 -32 -5 -32 -10z"/>
<path d="M305 2230 c2 -14 5 -42 5 -62 0 -21 4 -38 8 -38 12 0 7 71 -7 100
l-12 25 6 -25z"/>
<path d="M218 2088 c-2 -68 0 -130 4 -138 4 -8 8 47 8 123 0 75 -2 137 -4 137
-3 0 -6 -55 -8 -122z"/>
<path d="M4145 2180 c4 -6 11 -8 16 -5 14 9 11 15 -7 15 -8 0 -12 -5 -9 -10z"/>
<path d="M4175 2150 c-3 -5 -2 -10 4 -10 5 0 13 5 16 10 3 6 2 10 -4 10 -5 0
-13 -4 -16 -10z"/>
<path d="M4305 2150 c-3 -5 -1 -10 4 -10 6 0 11 5 11 10 0 6 -2 10 -4 10 -3 0
-8 -4 -11 -10z"/>
<path d="M4405 2130 c3 -5 8 -10 11 -10 2 0 4 5 4 10 0 6 -5 10 -11 10 -5 0
-7 -4 -4 -10z"/>
<path d="M4358 2123 c6 -2 18 -2 25 0 6 3 1 5 -13 5 -14 0 -19 -2 -12 -5z"/>
<path d="M4100 2110 c0 -5 5 -10 11 -10 5 0 7 5 4 10 -3 6 -8 10 -11 10 -2 0
-4 -4 -4 -10z"/>
<path d="M4760 2070 c-8 -5 -10 -10 -5 -10 6 0 17 5 25 10 8 5 11 10 5 10 -5
0 -17 -5 -25 -10z"/>
<path d="M4169 2033 c-13 -15 -12 -15 6 -6 11 6 27 13 35 16 10 4 8 6 -6 6
-12 1 -28 -6 -35 -16z"/>
<path d="M4063 1993 c9 -2 23 -2 30 0 6 3 -1 5 -18 5 -16 0 -22 -2 -12 -5z"/>
<path d="M4120 1990 c0 -5 -7 -10 -15 -10 -8 0 -15 -4 -15 -9 0 -10 25 -21 48
-21 15 1 15 2 -1 11 -14 8 -16 14 -6 25 8 10 8 14 0 14 -6 0 -11 -4 -11 -10z"/>
<path d="M3298 1723 c7 -3 16 -2 19 1 4 3 -2 6 -13 5 -11 0 -14 -3 -6 -6z"/>
<path d="M3268 1573 c6 -2 18 -2 25 0 6 3 1 5 -13 5 -14 0 -19 -2 -12 -5z"/>
<path d="M4183 1573 c9 -2 25 -2 35 0 9 3 1 5 -18 5 -19 0 -27 -2 -17 -5z"/>
<path d="M4970 1570 c0 -5 5 -10 11 -10 5 0 7 5 4 10 -3 6 -8 10 -11 10 -2 0
-4 -4 -4 -10z"/>
<path d="M1520 1536 c0 -2 18 -6 40 -8 22 -2 40 0 40 4 0 5 -18 8 -40 8 -22 0
-40 -2 -40 -4z"/>
<path d="M4963 1532 c-34 -5 -30 -34 4 -29 26 3 42 21 26 29 -4 2 -18 2 -30 0z"/>
<path d="M1485 1520 c-3 -6 1 -7 9 -4 18 7 21 14 7 14 -6 0 -13 -4 -16 -10z"/>
<path d="M1623 1518 c9 -7 24 -22 33 -33 8 -11 12 -13 8 -5 -11 24 -36 50 -47
50 -6 0 -3 -6 6 -12z"/>
<path d="M3273 1458 c4 -10 2 -18 -3 -18 -6 0 -10 -4 -10 -10 0 -16 17 -11 24
7 4 9 1 21 -5 27 -9 8 -10 7 -6 -6z"/>
<path d="M4325 1460 c-18 -8 -17 -9 8 -9 16 -1 26 3 22 9 -3 6 -7 10 -8 9 -1
0 -11 -4 -22 -9z"/>
<path d="M4203 1443 c15 -2 39 -2 55 0 15 2 2 4 -28 4 -30 0 -43 -2 -27 -4z"/>
<path d="M4055 1430 c-12 -5 1 -6 35 -3 30 3 57 7 59 9 9 8 -75 2 -94 -6z"/>
<path d="M4405 1420 c4 -6 -10 -10 -34 -10 -22 0 -43 -4 -46 -10 -3 -5 -17
-10 -30 -10 -14 0 -29 -9 -35 -20 -6 -12 -21 -20 -35 -20 -14 0 -25 -4 -25
-10 0 -13 12 -13 44 0 22 8 26 7 26 -8 1 -16 1 -16 11 1 12 21 49 23 49 2 0
-8 5 -15 10 -15 6 0 10 6 10 14 0 14 21 26 43 26 7 0 3 -7 -7 -15 -18 -13 -18
-15 -3 -15 10 0 20 7 23 15 8 19 24 20 24 1 0 -8 4 -17 8 -20 4 -3 7 10 6 27
-1 18 2 37 8 44 14 17 1 33 -28 33 -14 0 -22 -4 -19 -10z"/>
<path d="M1663 1403 c-13 -5 -7 -33 7 -33 11 0 21 28 12 33 -4 3 -12 2 -19 0z"/>
<path d="M3230 1393 c0 -12 3 -14 8 -7 4 7 16 14 27 17 15 4 14 5 -7 6 -21 1
-28 -4 -28 -16z"/>
<path d="M1440 1385 c0 -13 4 -14 21 -4 12 6 39 9 60 7 21 -2 39 0 39 4 0 5
-27 8 -60 8 -47 0 -60 -3 -60 -15z"/>
<path d="M2983 1383 c9 -2 25 -2 35 0 9 3 1 5 -18 5 -19 0 -27 -2 -17 -5z"/>
<path d="M4206 1371 c-4 -5 3 -7 14 -4 23 6 26 13 6 13 -8 0 -17 -4 -20 -9z"/>
<path d="M3204 1355 c8 -8 23 -15 33 -15 14 1 13 4 -7 15 -33 19 -45 19 -26 0z"/>
<path d="M2960 1325 c0 -8 4 -15 10 -15 5 0 7 7 4 15 -4 8 -8 15 -10 15 -2 0
-4 -7 -4 -15z"/>
<path d="M2990 1322 c0 -5 15 -9 33 -9 26 -1 28 1 12 7 -27 11 -45 12 -45 2z"/>
<path d="M1623 1302 l-43 -3 0 -92 c0 -132 3 -137 59 -138 25 -1 38 -3 28 -6
-14 -4 -16 -8 -6 -19 7 -8 9 -33 6 -64 -5 -44 -3 -50 13 -50 16 0 18 6 15 43
-3 23 -7 105 -9 181 -3 76 -9 142 -13 145 -4 3 -27 5 -50 3z"/>
<path d="M1443 1223 c4 -43 6 -129 7 -190 0 -106 1 -113 20 -113 21 0 26 10
11 25 -5 6 -11 29 -13 52 -3 36 0 43 17 46 18 4 17 4 -3 6 -39 2 -13 21 29 21
42 0 54 -16 17 -23 -19 -4 -18 -5 6 -6 24 -1 27 -3 16 -16 -7 -9 -9 -22 -4
-32 4 -10 8 -29 9 -42 0 -14 5 -26 10 -28 6 -2 9 27 7 72 -2 41 -8 75 -13 75
-5 0 -9 24 -9 54 0 29 -3 81 -6 115 l-7 61 -50 0 -49 0 5 -77z m82 -33 c-3 -5
-13 -10 -21 -10 -8 0 -12 5 -9 10 3 6 13 10 21 10 8 0 12 -4 9 -10z"/>
<path d="M669 1285 c-2 -2 -3 -81 -1 -175 2 -144 5 -170 17 -160 7 6 48 12 89
13 59 2 79 -1 86 -13 6 -10 9 26 8 105 -2 116 -2 117 -7 38 -7 -94 -24 -102
-36 -15 -6 42 -11 52 -26 52 -10 0 -20 -7 -20 -15 -1 -8 -3 -19 -4 -25 -1 -5
-3 -20 -4 -32 -1 -21 -1 -21 -17 -2 -15 18 -15 18 -10 -8 5 -20 1 -33 -14 -48
-42 -42 -47 -26 -49 146 l-2 122 28 5 c15 3 33 1 39 -4 6 -5 13 -7 15 -5 9 9
75 15 86 8 6 -4 13 -28 16 -52 3 -42 4 -41 5 12 l2 57 -99 0 c-54 0 -100 -2
-102 -4z"/>
<path d="M4730 1270 c0 -5 8 -25 17 -45 18 -38 12 -55 -12 -35 -8 7 -15 8 -15
2 0 -5 7 -15 15 -22 27 -23 40 2 27 48 -15 50 -15 53 4 45 9 -3 14 -13 11 -24
-5 -20 8 -26 18 -8 9 14 -24 49 -47 49 -10 0 -18 -4 -18 -10z"/>
<path d="M4626 1255 c3 -7 0 -24 -7 -37 -11 -21 -11 -22 4 -10 13 11 17 10 26
-5 8 -15 12 -16 23 -4 8 9 9 11 1 7 -13 -7 -38 30 -25 38 9 5 42 -28 54 -54 4
-8 6 8 6 35 0 28 -3 40 -5 28 -2 -13 -9 -23 -14 -23 -5 0 -9 10 -10 23 0 12
-3 17 -5 10 -4 -8 -13 -9 -29 -3 -19 7 -23 6 -19 -5z"/>
<path d="M4374 1206 c-6 -16 22 -76 35 -76 13 0 19 33 10 56 -9 26 -38 39 -45
20z m36 -40 c-1 -21 -1 -21 -15 -2 -21 27 -20 53 0 36 8 -7 15 -22 15 -34z"/>
<path d="M4452 1165 c1 -27 3 -41 5 -29 l4 21 46 -24 c41 -20 49 -21 67 -9 23
14 33 63 18 78 -7 7 -10 -1 -9 -22 3 -50 -42 -65 -93 -30 -13 9 -12 12 4 25
11 8 17 18 13 21 -3 4 -14 -2 -24 -11 -17 -17 -18 -17 -24 6 -5 16 -7 8 -7
-26z"/>
<path d="M4543 1190 c-1 -11 0 -20 2 -20 2 0 9 9 15 20 8 15 8 20 -3 20 -7 0
-13 -9 -14 -20z"/>
<path d="M2581 1184 c0 -11 3 -14 6 -6 3 7 2 16 -1 19 -3 4 -6 -2 -5 -13z"/>
<path d="M4280 1194 c0 -3 9 -17 20 -31 11 -14 20 -20 20 -14 0 7 5 9 10 6 6
-3 13 1 17 10 3 10 0 21 -8 26 -23 15 -34 10 -13 -6 17 -13 18 -14 1 -15 -10
0 -20 7 -23 15 -6 14 -24 21 -24 9z"/>
<path d="M4181 1156 c0 -16 -9 -39 -18 -50 l-18 -21 25 20 c14 11 25 20 26 20
0 0 -3 14 -7 30 l-7 30 -1 -29z"/>
<path d="M4653 1173 c9 -2 17 -8 17 -13 0 -5 7 -7 17 -3 11 4 24 -3 40 -23 17
-22 23 -25 23 -12 0 23 -36 45 -80 51 -19 2 -27 2 -17 0z"/>
<path d="M4261 1124 c0 -11 3 -14 6 -6 3 7 2 16 -1 19 -3 4 -6 -2 -5 -13z"/>
<path d="M4332 1105 c6 -14 15 -25 20 -25 5 0 1 11 -8 25 -9 14 -18 25 -20 25
-2 0 2 -11 8 -25z"/>
<path d="M4395 1110 c13 -12 17 -12 30 0 13 13 11 15 -15 15 -26 0 -27 -2 -15
-15z"/>
<path d="M4829 1111 c-3 -21 -13 -27 -72 -40 -38 -9 -66 -18 -64 -21 3 -3 -12
-4 -34 -2 -35 4 -39 2 -39 -18 0 -22 3 -22 63 -16 40 4 57 3 48 -3 -8 -5 -19
-7 -26 -5 -6 3 -18 -2 -25 -11 -11 -13 -9 -15 16 -15 41 1 81 24 63 36 -15 9
23 16 169 30 39 4 72 11 72 15 0 9 -44 59 -52 59 -3 0 -8 -9 -11 -20 -3 -11
-13 -20 -22 -20 -11 0 -15 5 -11 15 3 8 1 15 -5 15 -6 0 -7 5 -4 10 3 6 2 10
-3 10 -5 0 -12 -9 -15 -20 -7 -26 -21 -25 -34 3 l-11 22 -3 -24z"/>
<path d="M4057 1099 c7 -7 15 -10 18 -7 3 3 -2 9 -12 12 -14 6 -15 5 -6 -5z"/>
<path d="M4103 1083 c9 -2 23 -2 30 0 6 3 -1 5 -18 5 -16 0 -22 -2 -12 -5z"/>
<path d="M4480 1030 c-14 -4 -44 -8 -66 -9 -27 -1 -44 -6 -48 -16 -3 -8 -13
-15 -23 -15 -10 0 -24 -4 -31 -8 -19 -12 184 -5 207 7 11 6 33 11 50 11 16 0
33 5 36 10 3 6 1 10 -5 10 -6 0 -8 5 -5 10 7 12 -78 12 -115 0z"/>
<path d="M4965 1020 c4 -6 11 -8 16 -5 14 9 11 15 -7 15 -8 0 -12 -5 -9 -10z"/>
<path d="M4866 1011 c-4 -5 3 -7 14 -4 23 6 26 13 6 13 -8 0 -17 -4 -20 -9z"/>
<path d="M4798 1003 c6 -2 18 -2 25 0 6 3 1 5 -13 5 -14 0 -19 -2 -12 -5z"/>
<path d="M4180 980 c-13 -8 -12 -10 3 -10 9 0 17 5 17 10 0 12 -1 12 -20 0z"/>
<path d="M4106 962 c-3 -5 8 -6 25 -4 16 2 29 6 29 8 0 8 -49 4 -54 -4z"/>
<path d="M4805 872 c2 -3 21 -6 41 -7 24 -1 31 1 21 6 -15 9 -70 9 -62 1z"/>
<path d="M4938 863 c12 -2 32 -2 45 0 12 2 2 4 -23 4 -25 0 -35 -2 -22 -4z"/>
<path d="M0 517 c0 -29 17 -39 41 -24 20 13 53 1 46 -16 -3 -9 7 -13 36 -14
30 -2 37 1 27 7 -11 7 -4 9 25 9 35 -1 37 -2 15 -9 -24 -8 -24 -8 6 -9 18 -1
45 6 60 14 16 8 39 15 52 15 13 0 20 4 17 10 -3 6 -1 10 4 10 6 0 11 5 11 10
0 7 -45 10 -127 8 -71 -2 -147 1 -170 6 -42 8 -43 8 -43 -17z"/>
<path d="M3558 523 c6 -2 18 -2 25 0 6 3 1 5 -13 5 -14 0 -19 -2 -12 -5z"/>
<path d="M3648 513 c7 -3 16 -2 19 1 4 3 -2 6 -13 5 -11 0 -14 -3 -6 -6z"/>
<path d="M300 473 c-31 -6 -45 -19 -31 -27 6 -4 11 -2 11 4 0 6 4 8 10 5 5 -3
20 1 32 9 23 16 22 17 -22 9z"/>
<path d="M895 470 c-3 -5 -1 -10 4 -10 6 0 11 5 11 10 0 6 -2 10 -4 10 -3 0
-8 -4 -11 -10z"/>
<path d="M938 469 c-10 -5 -18 -14 -18 -19 0 -17 15 -11 28 10 14 23 13 23
-10 9z"/>
<path d="M2464 455 c8 -8 18 -15 22 -15 3 0 1 7 -6 15 -7 8 -17 15 -22 15 -5
0 -3 -7 6 -15z"/>
<path d="M4076 462 c-3 -5 1 -9 9 -9 8 0 12 4 9 9 -3 4 -7 8 -9 8 -2 0 -6 -4
-9 -8z"/>
<path d="M124 434 c-10 -8 -13 -12 -6 -9 8 4 26 11 40 15 22 7 23 8 6 9 -11 1
-29 -6 -40 -15z"/>
<path d="M215 440 c-13 -6 -15 -9 -5 -9 8 0 22 4 30 9 18 12 2 12 -25 0z"/>
<path d="M4178 443 c12 -2 30 -2 40 0 9 3 -1 5 -23 4 -22 0 -30 -2 -17 -4z"/>
<path d="M4248 433 c7 -3 16 -2 19 1 4 3 -2 6 -13 5 -11 0 -14 -3 -6 -6z"/>
<path d="M4338 423 c7 -3 16 -2 19 1 4 3 -2 6 -13 5 -11 0 -14 -3 -6 -6z"/>
<path d="M135 410 c3 -5 13 -10 21 -10 8 0 12 5 9 10 -3 6 -13 10 -21 10 -8 0
-12 -4 -9 -10z"/>
<path d="M90 400 c-8 -5 -10 -10 -5 -10 6 0 17 5 25 10 8 5 11 10 5 10 -5 0
-17 -5 -25 -10z"/>
<path d="M909 393 c-13 -16 -12 -17 4 -4 16 13 21 21 13 21 -2 0 -10 -8 -17
-17z"/>
<path d="M1117 390 c3 -11 12 -20 20 -20 8 0 11 5 8 10 -3 6 0 10 7 10 9 0 9
3 -2 10 -25 16 -39 12 -33 -10z"/>
<path d="M4515 400 c3 -5 8 -10 11 -10 2 0 4 5 4 10 0 6 -5 10 -11 10 -5 0 -7
-4 -4 -10z"/>
<path d="M4548 393 c6 -2 18 -2 25 0 6 3 1 5 -13 5 -14 0 -19 -2 -12 -5z"/>
<path d="M4601 389 c13 -8 88 -14 78 -5 -2 2 -24 6 -48 9 -29 4 -40 2 -30 -4z"/>
<path d="M845 354 c-18 -16 -22 -22 -9 -15 18 9 53 42 43 41 -2 -1 -17 -12
-34 -26z"/>
<path d="M4698 373 c6 -2 18 -2 25 0 6 3 1 5 -13 5 -14 0 -19 -2 -12 -5z"/>
<path d="M4758 363 c7 -3 16 -2 19 1 4 3 -2 6 -13 5 -11 0 -14 -3 -6 -6z"/>
<path d="M2690 351 c0 -9 30 -24 36 -18 2 1 -6 8 -16 15 -11 7 -20 8 -20 3z"/>
<path d="M4808 353 c12 -2 30 -2 40 0 9 3 -1 5 -23 4 -22 0 -30 -2 -17 -4z"/>
<path d="M1076 342 c-6 -10 51 -8 61 1 3 4 -8 7 -25 7 -17 0 -33 -4 -36 -8z"/>
<path d="M4928 343 c7 -3 16 -2 19 1 4 3 -2 6 -13 5 -11 0 -14 -3 -6 -6z"/>
<path d="M785 320 c-3 -6 1 -7 9 -4 18 7 21 14 7 14 -6 0 -13 -4 -16 -10z"/>
<path d="M1000 320 c-13 -8 -12 -10 3 -10 9 0 17 5 17 10 0 12 -1 12 -20 0z"/>
<path d="M3834 319 c-3 -5 6 -9 20 -9 31 0 34 6 6 13 -11 3 -23 1 -26 -4z"/>
<path d="M1130 312 c0 -9 47 -8 57 1 3 4 -8 7 -25 7 -18 0 -32 -4 -32 -8z"/>
<path d="M1248 313 c7 -3 16 -2 19 1 4 3 -2 6 -13 5 -11 0 -14 -3 -6 -6z"/>
<path d="M1403 313 c8 -7 77 -6 85 2 3 3 -16 5 -43 5 -27 0 -45 -3 -42 -7z"/>
<path d="M348 243 c12 -2 32 -2 45 0 12 2 2 4 -23 4 -25 0 -35 -2 -22 -4z"/>
<path d="M1188 243 c7 -3 16 -2 19 1 4 3 -2 6 -13 5 -11 0 -14 -3 -6 -6z"/>
<path d="M1087 229 c7 -7 15 -10 18 -7 3 3 -2 9 -12 12 -14 6 -15 5 -6 -5z"/>
<path d="M120 221 c0 -5 7 -12 16 -15 14 -5 15 -4 4 9 -14 17 -20 19 -20 6z"/>
<path d="M68 183 c6 -2 18 -2 25 0 6 3 1 5 -13 5 -14 0 -19 -2 -12 -5z"/>
<path d="M218 183 c7 -3 16 -2 19 1 4 3 -2 6 -13 5 -11 0 -14 -3 -6 -6z"/>
<path d="M4210 159 c0 -5 5 -7 10 -4 6 3 10 8 10 11 0 2 -4 4 -10 4 -5 0 -10
-5 -10 -11z"/>
<path d="M4770 160 c0 -5 9 -10 20 -10 11 0 20 5 20 10 0 6 -9 10 -20 10 -11
0 -20 -4 -20 -10z"/>
<path d="M4599 136 c7 -9 23 -16 34 -16 26 0 12 15 -23 25 -22 7 -23 6 -11 -9z"/>
<path d="M1862 114 c10 -10 20 -15 24 -12 3 4 -5 12 -18 18 -22 12 -22 12 -6
-6z"/>
<path d="M306 108 c7 -10 43 -9 69 2 15 7 8 9 -27 8 -26 -1 -45 -5 -42 -10z"/>
<path d="M4678 113 c6 -2 18 -2 25 0 6 3 1 5 -13 5 -14 0 -19 -2 -12 -5z"/>
<path d="M178 103 c7 -3 16 -2 19 1 4 3 -2 6 -13 5 -11 0 -14 -3 -6 -6z"/>
<path d="M1298 103 c7 -3 16 -2 19 1 4 3 -2 6 -13 5 -11 0 -14 -3 -6 -6z"/>
<path d="M1638 103 c7 -3 16 -2 19 1 4 3 -2 6 -13 5 -11 0 -14 -3 -6 -6z"/>
<path d="M4820 74 c56 -17 75 -17 35 1 -16 8 -41 14 -55 14 -18 0 -12 -5 20
-15z"/>
<path d="M27 63 c-27 -4 -39 -23 -14 -23 24 0 57 12 57 21 0 5 -3 8 -7 8 -5
-1 -20 -4 -36 -6z"/>
</g>
</svg>
